<?xml version="1.0" encoding="UTF-8"?>
<svg xmlns="http://www.w3.org/2000/svg" viewBox="0 0 100 100" width="100" height="100">
  <!-- Kenlo K Icon - Red #F82E52 on transparent background - Centered -->
  <g transform="translate(5, 95) scale(0.09, -0.09)" fill="#F82E52" stroke="none">
    <path d="M49 1189 c-14 -5 -31 -21 -38 -35 -14 -31 -16 -1070 -2 -1107 13 -35
62 -53 95 -35 14 7 115 101 223 208 109 107 212 208 230 224 l32 29 233 -231
c145 -144 243 -233 260 -237 21 -5 33 -1 52 19 53 52 47 59 -210 317 l-235
236 205 199 c184 178 206 203 206 232 0 41 -30 72 -72 72 -34 0 -2 30 -609
-568 -136 -133 -252 -242 -258 -242 -8 0 -11 120 -11 439 0 404 -1 440 -17
459 -23 26 -51 33 -84 21z"/>
  </g>
</svg>
