<?xml version="1.0" standalone="no"?>
<!DOCTYPE svg PUBLIC "-//W3C//DTD SVG 20010904//EN"
 "http://www.w3.org/TR/2001/REC-SVG-20010904/DTD/svg10.dtd">
<svg version="1.0" xmlns="http://www.w3.org/2000/svg"
 width="419.000000pt" height="120.000000pt" viewBox="0 0 419.000000 120.000000"
 preserveAspectRatio="xMidYMid meet">
<metadata>
Created by potrace 1.16, written by Peter Selinger 2001-2019
</metadata>
<g transform="translate(0.000000,120.000000) scale(0.100000,-0.100000)"
fill="#F82E52" stroke="none">
<path d="M49 1189 c-14 -5 -31 -21 -38 -35 -14 -31 -16 -1070 -2 -1107 13 -35
62 -53 95 -35 14 7 115 101 223 208 109 107 212 208 230 224 l32 29 233 -231
c145 -144 243 -233 260 -237 21 -5 33 -1 52 19 53 52 47 59 -210 317 l-235
236 205 199 c184 178 206 203 206 232 0 41 -30 72 -72 72 -34 0 -2 30 -609
-568 -136 -133 -252 -242 -258 -242 -8 0 -11 120 -11 439 0 404 -1 440 -17
459 -23 26 -51 33 -84 21z"/>
<path d="M3105 1175 l-25 -24 0 -551 0 -551 25 -24 c30 -30 54 -31 89 -4 l26
20 0 555 0 555 -25 24 c-13 14 -33 25 -45 25 -11 0 -32 -11 -45 -25z"/>
<path d="M1470 845 c-203 -57 -343 -269 -311 -473 44 -281 332 -433 652 -342
52 15 82 46 74 79 -13 53 -23 56 -142 42 -177 -20 -292 9 -375 96 -33 34 -58
79 -58 103 0 5 147 10 336 12 l336 3 24 28 c30 35 31 82 6 164 -37 116 -112
202 -229 260 -64 32 -83 36 -165 39 -63 3 -111 -1 -148 -11z m223 -141 c76
-26 177 -130 177 -183 0 -8 -83 -11 -280 -11 l-280 0 15 36 c31 75 91 131 172
160 52 18 140 17 196 -2z"/>
<path d="M2415 843 c-122 -44 -225 -137 -266 -241 -22 -53 -24 -75 -27 -304
l-4 -247 26 -26 c30 -30 55 -32 89 -5 l25 20 4 238 c4 260 8 277 69 347 53 60
111 87 194 93 62 4 80 1 126 -20 73 -33 113 -69 141 -126 22 -44 23 -61 28
-289 6 -270 7 -274 74 -276 68 -2 71 7 74 243 2 120 -1 234 -8 267 -24 132
-114 248 -237 306 -59 27 -81 32 -163 34 -72 3 -107 -1 -145 -14z"/>
<path d="M3629 846 c-111 -31 -221 -121 -273 -224 -38 -74 -53 -176 -39 -258
60 -350 501 -482 748 -223 222 233 124 604 -186 700 -70 22 -180 24 -250 5z
m260 -161 c106 -58 157 -153 149 -274 -6 -77 -30 -131 -85 -183 -184 -177
-499 -46 -497 207 1 111 60 201 167 255 57 29 69 31 137 28 60 -4 87 -11 129
-33z"/>
</g>
</svg>
