<?xml version="1.0" encoding="UTF-8"?>
<svg xmlns="http://www.w3.org/2000/svg" viewBox="0 0 419 120" fill="#F82E52">
  <!-- Kenlo Logo - Official Red #F82E52 -->
  <!-- Traced from original with potrace and cleaned -->
  <g transform="translate(0,120) scale(0.1,-0.1)">
    <!-- K with diagonal cut -->
    <path d="M107 1190 c12 -5 26 -18 32 -29 7 -13 11 -166 11 -455 0 -317 3 -436 11 -436 6 0 122 109 258 242 607 598 575 568 609 568 42 0 72 -31 72 -72 0 -29 -22 -54 -206 -232 l-205 -199 235 -236 c257 -257 262 -265 211 -316 l-24 -25 237 1 c155 1 221 4 190 9 -262 44 -424 259 -374 497 47 228 229 365 464 350 178 -11 331 -130 384 -300 25 -82 24 -129 -6 -164 l-24 -28 -336 -3 c-189 -2 -336 -7 -336 -12 0 -24 25 -69 58 -103 83 -87 198 -116 375 -96 119 14 129 11 142 -42 12 -48 -42 -80 -170 -99 -31 -5 47 -8 202 -9 l252 -1 -25 25 -26 26 4 247 c3 230 5 251 27 305 33 85 115 168 209 214 74 37 79 38 186 38 104 0 115 -2 179 -32 122 -58 213 -174 237 -302 13 -69 13 -442 0 -476 -5 -14 -20 -30 -32 -35 -16 -6 11 -9 89 -9 l112 -1 -24 25 -25 24 0 551 0 551 25 24 24 25 -1522 -1 c-887 0 -1513 -4 -1500 -9z"/>
    <!-- o with dot -->
    <path d="M3195 1175 l25 -24 0 -555 0 -555 -26 -20 -27 -21 279 1 c172 1 259 4 227 9 -79 12 -176 62 -236 122 -165 165 -167 422 -6 593 239 253 672 134 745 -205 10 -46 12 2 13 313 l1 367 -510 0 -509 0 24 -25z"/>
    <!-- e cutout -->
    <path d="M1497 706 c-81 -29 -141 -85 -172 -160 l-15 -36 280 0 c197 0 280 3 280 11 0 53 -101 157 -177 183 -56 19 -144 20 -196 2z"/>
    <!-- n cutout -->
    <path d="M2458 710 c-69 -21 -143 -87 -175 -158 -14 -31 -18 -78 -21 -274 l-4 -238 -25 -20 -26 -20 344 1 c189 1 333 4 319 8 -45 12 -50 39 -50 272 0 238 -7 276 -60 341 -46 56 -139 98 -214 97 -34 0 -73 -4 -88 -9z"/>
    <!-- o cutout -->
    <path d="M3623 690 c-147 -74 -207 -230 -142 -370 87 -187 325 -234 472 -92 55 52 79 106 85 183 12 171 -103 297 -278 307 -68 3 -80 1 -137 -28z"/>
    <!-- K diagonal part -->
    <path d="M354 248 c-124 -123 -236 -228 -247 -235 -18 -10 81 -12 478 -12 285 0 491 4 480 9 -11 4 -108 97 -215 205 -107 108 -212 210 -232 226 l-37 30 -227 -223z"/>
    <!-- o dot -->
    <path d="M4177 351 c-20 -156 -187 -316 -354 -340 -44 -6 -5 -9 155 -10 l212 -1 0 195 c0 107 -2 195 -4 195 -2 0 -6 -18 -9 -39z"/>
  </g>
</svg>