<?xml version="1.0" encoding="UTF-8"?>
<svg xmlns="http://www.w3.org/2000/svg" viewBox="0 0 420 120" width="420" height="120">
  <!-- Kenlo Logo - Official Red #FFFFFF -->
  <g fill="#FFFFFF">
    <!-- K -->
    <path d="M0 0 L0 120 L30 120 L30 75 L35 70 L90 120 L130 120 L55 55 L125 0 L85 0 L30 50 L30 0 Z"/>
    <!-- e -->
    <path d="M155 35 C130 35 110 55 110 80 C110 105 130 120 155 120 C175 120 190 110 195 95 L170 95 C165 102 160 107 155 107 C142 107 133 97 133 85 L195 85 C195 83 195 81 195 80 C195 55 175 35 155 35 Z M155 48 C168 48 177 58 177 70 L133 70 C133 58 142 48 155 48 Z"/>
    <!-- n -->
    <path d="M210 40 L210 120 L235 120 L235 75 C235 62 245 52 260 52 C275 52 283 62 283 75 L283 120 L308 120 L308 70 C308 50 290 35 265 35 C250 35 238 42 235 52 L235 40 Z"/>
    <!-- l -->
    <path d="M325 0 L325 120 L350 120 L350 0 Z"/>
    <!-- o -->
    <path d="M395 35 C370 35 350 55 350 77.5 C350 100 370 120 395 120 C420 120 440 100 440 77.5 C440 55 420 35 395 35 Z M395 50 C410 50 420 62 420 77.5 C420 93 410 105 395 105 C380 105 370 93 370 77.5 C370 62 380 50 395 50 Z"/>
    <!-- Dot above o -->
    <circle cx="395" cy="15" r="10"/>
  </g>
</svg>